<svg width="480" height="480" viewBox="0 0 480 480" fill="none" xmlns="http://www.w3.org/2000/svg">
<circle cx="240" cy="245" r="210" fill="#A9CCA4"/>
<path d="M226 312V262.4C226 256.267 226.2 250 226.6 243.6C227.133 237.067 227.667 231.6 228.2 227.2C228.733 222.8 229.067 220 229.2 218.8H228.4L203 312H168.4L142.8 219H142C142.133 220.2 142.467 223 143 227.4C143.667 231.667 144.267 237.067 144.8 243.6C145.333 250 145.6 256.267 145.6 262.4V312H105V174.4H167.4L188.2 253.8H189L209.6 174.4H269.8V312H226Z" fill="#1B4332"/>
<path d="M256.667 174.4H375.667V207.4H300.867V226.4H364.867V258H300.867V279H377.067V312H256.667V174.4Z" fill="#1A1A1A"/>
</svg>
